<svg height="511pt" viewBox="0 -1 511.99965 511" width="511pt" xmlns="http://www.w3.org/2000/svg"><path d="m415.859375 9.457031v500.203125h-319.71875v-500.203125c0-4.945312 4.011719-8.957031 8.957031-8.957031h301.800782c4.949218 0 8.960937 4.011719 8.960937 8.957031zm0 0" fill="#d2d2d7"/><path d="m415.859375 9.457031v500.203125h-288.46875v-500.203125c0-4.945312 4.011719-8.957031 8.960937-8.957031h270.546876c4.949218 0 8.960937 4.011719 8.960937 8.957031zm0 0" fill="#ebebf0"/><path d="m376.617188 346.238281c18.835937 19.875 13.742187 61.054688 14.542968 99.066407v.011718l90.054688-.03125v-80.390625c0-20.082031 6.492187-30.28125 21.742187-64 6.488281-14.332031 8.445313-26.9375 8.925781-38.855469.875-21.4375-3.207031-42.78125-11.269531-62.65625l-55.972656-110.535156c-.03125-.0625.011719.019532-.226563-.4375-6.15625-11.375-20.117187-16.605468-32.386718-11.648437-2.179688.886719-4.179688 2.03125-5.960938 3.398437-8.988281 6.882813-12.707031 19.226563-8.269531 30.195313l33.65625 87.253906c3.042969 7.875 5.929687 20.492187 7.949219 30.449219 1.84375 9.09375 2.9375 18.324218 3.269531 27.59375.011719.167968.011719.335937.011719.511718 0 7.363282-5.980469 13.386719-13.417969 13.386719-7.40625 0-13.40625-5.992187-13.40625-13.398437v-9.9375c0-16.667969-11.082031-31.542969-27.230469-35.675782-13.175781-3.367187-17.21875 3.71875-18.488281 13.875l-11.15625 68.042969c-4.117187 32.84375 17.445313 53.46875 17.632813 53.78125zm0 0" fill="#f2bb88"/><path d="m358.984375 292.457031c-4.117187 32.84375 17.445313 53.46875 17.632813 53.78125 18.835937 19.875 13.742187 61.054688 14.542968 99.066407l58.804688-.019532v-80.390625c0-20.082031 6.488281-30.28125 21.738281-64 6.492187-14.332031 8.449219-26.9375 8.929687-38.855469.875-21.4375-3.210937-42.78125-11.273437-62.65625l-55.96875-110.535156c-.03125-.0625.011719.019532-.230469-.4375-1.78125-3.304687-4.226562-6.085937-7.09375-8.25-8.988281 6.882813-12.707031 19.226563-8.269531 30.195313l33.65625 87.253906c3.042969 7.875 5.929687 20.492187 7.949219 30.449219 1.84375 9.09375 2.9375 18.324218 3.269531 27.59375.011719.167968.011719.335937.011719.511718 0 7.363282-5.980469 13.386719-13.417969 13.386719-7.40625 0-13.40625-5.992187-13.40625-13.398437v-9.9375c0-16.667969-11.082031-31.542969-27.230469-35.675782-13.175781-3.367187-17.21875 3.71875-18.488281 13.875zm0 0" fill="#f2d1a5"/><path d="m509.359375 439.867188v60.886718c0 4.917969-3.988281 8.90625-8.894531 8.90625h-129.960938c-4.917968 0-8.90625-3.988281-8.90625-8.90625v-60.886718c0-4.917969 3.988282-8.90625 8.90625-8.90625h129.960938c4.90625 0 8.894531 3.988281 8.894531 8.90625zm0 0" fill="#919196"/><path d="m135.382812 346.238281c-18.835937 19.875-13.742187 61.054688-14.542968 99.066407v.011718l-90.054688-.03125v-80.390625c0-20.082031-6.492187-30.28125-21.742187-64-6.488281-14.332031-8.449219-26.9375-8.925781-38.855469-.875-21.4375 3.207031-42.78125 11.269531-62.65625l55.972656-110.535156c.03125-.0625-.011719.019532.226563-.4375 6.15625-11.375 20.117187-16.605468 32.386718-11.648437 2.179688.886719 4.179688 2.03125 5.960938 3.398437 8.988281 6.882813 12.707031 19.226563 8.269531 30.195313l-33.65625 87.253906c-3.042969 7.875-5.929687 20.492187-7.949219 30.449219-1.84375 9.09375-2.9375 18.324218-3.269531 27.59375-.011719.167968-.011719.335937-.011719.511718 0 7.363282 5.980469 13.386719 13.417969 13.386719 7.40625 0 13.40625-5.992187 13.40625-13.398437v-9.9375c0-16.667969 11.082031-31.542969 27.230469-35.675782 13.175781-3.367187 17.21875 3.71875 18.488281 13.875l11.15625 68.042969c4.117187 32.84375-17.445313 53.46875-17.632813 53.78125zm0 0" fill="#f2bb88"/><path d="m153.015625 292.457031c4.117187 32.84375-17.445313 53.46875-17.632813 53.78125-18.835937 19.875-13.742187 61.054688-14.542968 99.066407l-58.804688-.019532v-80.390625c0-20.082031-6.488281-30.28125-21.742187-64-6.488281-14.332031-8.445313-26.9375-8.925781-38.855469-.875-21.4375 3.207031-42.78125 11.269531-62.65625l55.972656-110.535156c.03125-.0625-.011719.019532.230469-.4375 1.78125-3.304687 4.226562-6.085937 7.09375-8.25 8.988281 6.882813 12.707031 19.226563 8.269531 30.195313l-33.65625 87.253906c-3.042969 7.875-5.929687 20.492187-7.949219 30.449219-1.84375 9.09375-2.9375 18.324218-3.269531 27.59375-.011719.167968-.011719.335937-.011719.511718 0 7.363282 5.980469 13.386719 13.417969 13.386719 7.40625 0 13.40625-5.992187 13.40625-13.398437v-9.9375c0-16.667969 11.082031-31.542969 27.230469-35.675782 13.175781-3.367187 17.21875 3.71875 18.488281 13.875zm0 0" fill="#f2d1a5"/><path d="m150.402344 439.867188v60.886718c0 4.917969-3.988282 8.90625-8.90625 8.90625h-129.960938c-4.90625 0-8.898437-3.988281-8.898437-8.90625v-60.886718c0-4.917969 3.992187-8.90625 8.898437-8.90625h129.960938c4.917968 0 8.90625 3.988281 8.90625 8.90625zm0 0" fill="#919196"/><path d="m509.359375 439.867188v44.792968h-102.398437c-4.914063 0-8.90625-3.988281-8.90625-8.90625v-44.792968h102.410156c4.90625 0 8.894531 3.988281 8.894531 8.90625zm0 0" fill="#b9b9be"/><path d="m150.402344 439.867188v44.792968h-102.410156c-4.90625 0-8.894532-3.988281-8.894532-8.90625v-44.792968h102.398438c4.917968 0 8.90625 3.988281 8.90625 8.90625zm0 0" fill="#b9b9be"/><path d="m140.371094 48.128906h74.65625c4.3125 0 7.8125-3.496094 7.8125-7.8125s-3.5-7.8125-7.8125-7.8125h-74.65625c-4.316406 0-7.8125 3.496094-7.8125 7.8125s3.496094 7.8125 7.8125 7.8125zm0 0" fill="#6990d7"/><path d="m140.371094 103.9375h74.65625c4.3125 0 7.8125-3.5 7.8125-7.8125 0-4.316406-3.5-7.8125-7.8125-7.8125h-74.65625c-4.316406 0-7.8125 3.496094-7.8125 7.8125 0 4.3125 3.496094 7.8125 7.8125 7.8125zm0 0" fill="#6990d7"/><path d="m222.835938 151.933594c0-4.316406-3.496094-7.8125-7.8125-7.8125h-74.652344c-4.316406 0-7.8125 3.496094-7.8125 7.8125 0 4.3125 3.496094 7.8125 7.8125 7.8125h74.652344c4.316406 0 7.8125-3.5 7.8125-7.8125zm0 0" fill="#6990d7"/><g fill="#7d8287"><path d="m174.050781 206.816406h163.894531c4.316407 0 7.8125-3.5 7.8125-7.816406 0-4.3125-3.496093-7.8125-7.8125-7.8125h-163.894531c-4.3125 0-7.8125 3.5-7.8125 7.8125 0 4.316406 3.5 7.816406 7.8125 7.816406zm0 0"/><path d="m341.074219 244.449219c0-4.3125-3.496094-7.8125-7.8125-7.8125h-154.523438c-4.316406 0-7.816406 3.5-7.816406 7.8125 0 4.316406 3.5 7.8125 7.816406 7.8125h154.523438c4.316406 0 7.8125-3.496094 7.8125-7.8125zm0 0"/><path d="m183.601562 282.085938c-4.316406 0-7.8125 3.5-7.8125 7.8125 0 4.316406 3.496094 7.8125 7.8125 7.8125h144.796876c4.3125 0 7.8125-3.496094 7.8125-7.8125 0-4.3125-3.5-7.8125-7.8125-7.8125zm0 0"/><path d="m173.351562 343.160156h165.296876c4.3125 0 7.8125-3.496094 7.8125-7.8125 0-4.3125-3.5-7.8125-7.8125-7.8125h-165.296876c-4.316406 0-7.8125 3.5-7.8125 7.8125 0 4.316406 3.496094 7.8125 7.8125 7.8125zm0 0"/><path d="m356.347656 372.984375h-132.292968c-4.316407 0-7.8125 3.5-7.8125 7.8125 0 4.316406 3.496093 7.8125 7.8125 7.8125h132.292968c4.316406 0 7.8125-3.496094 7.8125-7.8125 0-4.3125-3.496094-7.8125-7.8125-7.8125zm0 0"/><path d="m200.617188 380.796875c0-4.3125-3.5-7.8125-7.816407-7.8125h-37.152343c-4.316407 0-7.8125 3.5-7.8125 7.8125 0 4.316406 3.496093 7.8125 7.8125 7.8125h37.152343c4.316407 0 7.816407-3.496094 7.816407-7.8125zm0 0"/><path d="m338.648438 418.433594h-165.296876c-4.316406 0-7.8125 3.496094-7.8125 7.8125s3.496094 7.8125 7.8125 7.8125h165.296876c4.3125 0 7.8125-3.496094 7.8125-7.8125s-3.5-7.8125-7.8125-7.8125zm0 0"/><path d="m326.140625 463.882812h-140.28125c-4.316406 0-7.816406 3.496094-7.816406 7.8125 0 4.316407 3.5 7.8125 7.816406 7.8125h140.28125c4.3125 0 7.8125-3.496093 7.8125-7.8125 0-4.316406-3.5-7.8125-7.8125-7.8125zm0 0"/></g><path d="m356.160156 152.242188h-96.90625c-4.882812 0-8.839844-3.957032-8.839844-8.839844v-94.824219c0-4.882813 3.957032-8.839844 8.839844-8.839844h96.90625c4.882813 0 8.839844 3.957031 8.839844 8.839844v94.824219c0 4.882812-3.957031 8.839844-8.839844 8.839844zm0 0" fill="#35e298"/><path d="m321.050781 114.738281h-3.414062c7.683593-3.699219 12.988281-11.558593 12.988281-20.660156 0-12.65625-10.261719-22.914063-22.917969-22.914063s-22.917969 10.257813-22.917969 22.914063c0 9.101563 5.304688 16.960937 12.988282 20.660156h-3.414063c-18.855469 0-34.140625 15.285157-34.140625 34.140625v3.363282h94.96875v-3.363282c0-18.855468-15.285156-34.140625-34.140625-34.140625zm0 0" fill="#169b62"/></svg>